<mxfile host="app.diagrams.net" modified="2023-02-10T17:20:33.698Z" agent="5.0 (Windows NT 10.0; Win64; x64) AppleWebKit/537.36 (KHTML, like Gecko) Chrome/109.0.0.0 Safari/537.36 Edg/109.0.1518.70" version="20.7.4" etag="QEt5XscuRHOvY4XOB_id" type="github">
  <diagram id="K5aLvIMpDVl0olhYd5NV" name="Página-1">
    <mxGraphModel dx="1311" dy="551" grid="1" gridSize="10" guides="1" tooltips="1" connect="1" arrows="1" fold="1" page="1" pageScale="1" pageWidth="1169" pageHeight="827" math="0" shadow="0">
      <root>
        <mxCell id="0" />
        <mxCell id="1" parent="0" />
        <mxCell id="edM-Qy_g1ela926yPv5F-2" value="&lt;b&gt;&lt;font style=&quot;font-size: 14px;&quot;&gt;Protocolo na ANEEL&lt;br&gt;&lt;/font&gt;&lt;/b&gt;" style="shape=document;whiteSpace=wrap;html=1;boundedLbl=1;fillColor=#97D077;" vertex="1" parent="1">
          <mxGeometry x="440" y="90" width="110" height="70" as="geometry" />
        </mxCell>
        <mxCell id="edM-Qy_g1ela926yPv5F-21" style="edgeStyle=orthogonalEdgeStyle;rounded=0;orthogonalLoop=1;jettySize=auto;html=1;fontSize=14;" edge="1" parent="1" source="edM-Qy_g1ela926yPv5F-7" target="edM-Qy_g1ela926yPv5F-20">
          <mxGeometry relative="1" as="geometry" />
        </mxCell>
        <mxCell id="edM-Qy_g1ela926yPv5F-7" value="&lt;b&gt;Contratos&lt;/b&gt;" style="shape=card;whiteSpace=wrap;html=1;fontSize=14;fillColor=#A9C4EB;" vertex="1" parent="1">
          <mxGeometry x="65" y="70" width="85" height="110" as="geometry" />
        </mxCell>
        <mxCell id="edM-Qy_g1ela926yPv5F-22" style="edgeStyle=orthogonalEdgeStyle;rounded=0;orthogonalLoop=1;jettySize=auto;html=1;fontSize=14;" edge="1" parent="1" source="edM-Qy_g1ela926yPv5F-10" target="edM-Qy_g1ela926yPv5F-20">
          <mxGeometry relative="1" as="geometry" />
        </mxCell>
        <mxCell id="edM-Qy_g1ela926yPv5F-10" value="&lt;b&gt;Formulários&lt;/b&gt;" style="shape=card;whiteSpace=wrap;html=1;fontSize=14;fillColor=#A9C4EB;" vertex="1" parent="1">
          <mxGeometry x="60" y="190" width="90" height="110" as="geometry" />
        </mxCell>
        <mxCell id="edM-Qy_g1ela926yPv5F-26" style="edgeStyle=orthogonalEdgeStyle;rounded=0;orthogonalLoop=1;jettySize=auto;html=1;entryX=0.5;entryY=1;entryDx=0;entryDy=0;fontSize=14;" edge="1" parent="1" source="edM-Qy_g1ela926yPv5F-11" target="edM-Qy_g1ela926yPv5F-20">
          <mxGeometry relative="1" as="geometry" />
        </mxCell>
        <mxCell id="edM-Qy_g1ela926yPv5F-11" value="&lt;b&gt;Planilha de Dados&lt;/b&gt;" style="shape=card;whiteSpace=wrap;html=1;fontSize=14;fillColor=#A9C4EB;" vertex="1" parent="1">
          <mxGeometry x="70" y="310" width="75" height="110" as="geometry" />
        </mxCell>
        <mxCell id="edM-Qy_g1ela926yPv5F-12" value="&lt;b&gt;&lt;font style=&quot;font-size: 14px;&quot;&gt;Protocolo na ANATEL&lt;br&gt;&lt;/font&gt;&lt;/b&gt;" style="shape=document;whiteSpace=wrap;html=1;boundedLbl=1;fillColor=#97D077;" vertex="1" parent="1">
          <mxGeometry x="440" y="300" width="110" height="70" as="geometry" />
        </mxCell>
        <mxCell id="edM-Qy_g1ela926yPv5F-30" style="edgeStyle=orthogonalEdgeStyle;rounded=0;orthogonalLoop=1;jettySize=auto;html=1;entryX=0;entryY=0.5;entryDx=0;entryDy=0;fontSize=14;" edge="1" parent="1" source="edM-Qy_g1ela926yPv5F-20" target="edM-Qy_g1ela926yPv5F-2">
          <mxGeometry relative="1" as="geometry" />
        </mxCell>
        <mxCell id="edM-Qy_g1ela926yPv5F-32" style="edgeStyle=orthogonalEdgeStyle;rounded=0;orthogonalLoop=1;jettySize=auto;html=1;fontSize=14;" edge="1" parent="1" target="edM-Qy_g1ela926yPv5F-29">
          <mxGeometry relative="1" as="geometry">
            <mxPoint x="339.9999567473815" y="245.05882352941182" as="sourcePoint" />
            <mxPoint x="440" y="240" as="targetPoint" />
            <Array as="points">
              <mxPoint x="450" y="245" />
              <mxPoint x="450" y="245" />
            </Array>
          </mxGeometry>
        </mxCell>
        <mxCell id="edM-Qy_g1ela926yPv5F-33" style="edgeStyle=orthogonalEdgeStyle;rounded=0;orthogonalLoop=1;jettySize=auto;html=1;entryX=0;entryY=0.5;entryDx=0;entryDy=0;fontSize=14;" edge="1" parent="1" source="edM-Qy_g1ela926yPv5F-20" target="edM-Qy_g1ela926yPv5F-12">
          <mxGeometry relative="1" as="geometry" />
        </mxCell>
        <mxCell id="edM-Qy_g1ela926yPv5F-20" value="&lt;b&gt;Compactar&lt;/b&gt;" style="ellipse;whiteSpace=wrap;html=1;aspect=fixed;fontSize=14;fillColor=#A9C4EB;" vertex="1" parent="1">
          <mxGeometry x="260" y="205" width="80" height="80" as="geometry" />
        </mxCell>
        <mxCell id="edM-Qy_g1ela926yPv5F-29" value="&lt;b&gt;&lt;font style=&quot;font-size: 14px;&quot;&gt;Informar DVRT&lt;br&gt;&lt;/font&gt;&lt;/b&gt;" style="shape=document;whiteSpace=wrap;html=1;boundedLbl=1;fillColor=#97D077;" vertex="1" parent="1">
          <mxGeometry x="440" y="205" width="110" height="70" as="geometry" />
        </mxCell>
      </root>
    </mxGraphModel>
  </diagram>
</mxfile>
